<svg xmlns="http://www.w3.org/2000/svg" xmlns:xlink="http://www.w3.org/1999/xlink" width="500" zoomAndPan="magnify" viewBox="0 0 375 374.999991" height="500" preserveAspectRatio="xMidYMid meet" version="1.0"><defs><clipPath id="59d8b9b003"><path d="M 187.5 0 C 83.945312 0 0 83.945312 0 187.5 C 0 291.054688 83.945312 375 187.5 375 C 291.054688 375 375 291.054688 375 187.5 C 375 83.945312 291.054688 0 187.5 0 Z M 187.5 0 " clip-rule="nonzero"/></clipPath><clipPath id="9dba04bfdb"><path d="M 56.261719 75.617188 L 318.761719 75.617188 L 318.761719 299.117188 L 56.261719 299.117188 Z M 56.261719 75.617188 " clip-rule="nonzero"/></clipPath></defs><rect x="-37.5" width="450" fill="#ffffff" y="-37.499999" height="449.999989" fill-opacity="1"/><rect x="-37.5" width="450" fill="#ffffff" y="-37.499999" height="449.999989" fill-opacity="1"/><g clip-path="url(#59d8b9b003)"><rect x="-37.5" width="450" fill="#3cb4ac" y="-37.499999" height="449.999989" fill-opacity="1"/></g><g clip-path="url(#9dba04bfdb)"><path fill="#000000" d="M 317.480469 243.621094 C 316.171875 248.199219 313.660156 251.960938 309.828125 254.851562 C 304.773438 258.65625 299.113281 261.28125 293.128906 263.191406 C 289.804688 264.253906 286.394531 265.066406 283.039062 266.003906 C 282.765625 266.078125 282.519531 266.238281 282.226562 266.363281 C 282.226562 266.636719 282.183594 266.867188 282.234375 267.070312 C 282.847656 269.589844 281.71875 271.414062 279.839844 272.867188 C 279.082031 273.457031 278.203125 273.902344 277.347656 274.34375 C 273.84375 276.167969 270.183594 277.632812 266.496094 279.046875 C 254.339844 283.707031 242.167969 288.3125 229.828125 292.464844 C 223.546875 294.574219 217.203125 296.429688 210.722656 297.84375 C 209.320312 298.148438 207.925781 298.253906 206.511719 298.03125 C 206.351562 298.011719 206.203125 297.949219 206.058594 297.886719 C 205.074219 298.117188 204.082031 298.210938 203.070312 298.253906 C 203.082031 298.203125 203.082031 298.148438 203.082031 298.097656 C 203.101562 298.550781 202.761719 298.960938 202.277344 298.992188 C 201.613281 299.035156 200.9375 299.023438 200.273438 299.023438 C 199.828125 299.023438 199.375 299.023438 198.933594 299.023438 C 198.933594 299.042969 198.921875 299.066406 198.921875 299.097656 C 195.660156 298.8125 192.398438 298.539062 189.125 298.253906 C 187.195312 298.085938 185.273438 297.875 183.339844 297.707031 C 179.5625 297.359375 175.773438 297.0625 171.992188 296.671875 C 167.179688 296.175781 162.378906 295.585938 157.566406 295.070312 C 154.007812 294.691406 150.449219 294.386719 146.894531 294.035156 C 142.820312 293.648438 138.742188 293.246094 134.660156 292.855469 C 130.878906 292.496094 127.089844 292.179688 123.3125 291.792969 C 119.902344 291.445312 116.503906 291.042969 113.105469 290.652344 C 110.074219 290.316406 107.035156 289.988281 104.003906 289.621094 C 100.089844 289.136719 96.171875 288.648438 92.269531 288.089844 C 88.804688 287.59375 85.34375 287.058594 81.902344 286.445312 C 78.832031 285.898438 75.769531 285.253906 72.71875 284.589844 C 71.105469 284.242188 69.617188 283.546875 68.339844 282.472656 C 66.976562 281.3125 66.535156 279.71875 67.125 278.042969 C 67.242188 277.707031 67.484375 277.390625 67.726562 277.128906 C 67.9375 276.894531 68.203125 276.789062 68.445312 276.800781 C 68.527344 276.429688 68.613281 276.0625 68.769531 275.726562 C 68.6875 275.652344 68.613281 275.566406 68.539062 275.492188 C 68.414062 275.34375 68.328125 275.113281 68.308594 274.882812 C 67.453125 274.617188 66.746094 274.046875 66.355469 273.214844 C 66.289062 273.246094 66.21875 273.269531 66.164062 273.277344 C 66.003906 273.320312 65.6875 273.152344 65.605469 272.996094 C 65.296875 272.402344 64.972656 271.804688 64.824219 271.171875 C 64.507812 269.714844 64.222656 268.25 64.042969 266.785156 C 63.378906 261.398438 62.734375 256.011719 62.121094 250.613281 C 61.402344 244.328125 60.707031 238.046875 60.042969 231.761719 C 59.515625 226.808594 59.039062 221.84375 58.554688 216.886719 C 58.171875 213.039062 57.761719 209.191406 57.402344 205.34375 C 57.203125 203.191406 57.042969 201.042969 56.9375 198.890625 C 56.707031 194.136719 56.503906 189.371094 56.335938 184.617188 C 56.261719 182.457031 56.347656 180.292969 56.824219 178.175781 C 57.054688 177.164062 57.359375 176.140625 57.847656 175.246094 C 58.765625 173.578125 60.222656 172.671875 62.183594 172.523438 C 66.28125 172.21875 70.363281 172.144531 74.472656 172.417969 C 75.285156 172.472656 76.105469 172.492188 76.929688 172.515625 C 85.195312 172.714844 93.472656 172.871094 101.734375 173.113281 C 107.097656 173.273438 112.449219 173.578125 117.8125 173.820312 C 118.109375 173.832031 118.402344 173.863281 118.710938 173.875 C 124.144531 174.074219 129.582031 174.242188 135.019531 174.464844 C 140.085938 174.675781 145.140625 174.949219 150.195312 175.171875 C 152.277344 175.265625 154.367188 175.328125 156.457031 175.382812 C 156.730469 175.390625 157.015625 175.265625 157.351562 175.191406 C 157.238281 174.75 157.164062 174.390625 157.058594 174.042969 C 156.203125 171.257812 155.652344 168.421875 155.328125 165.535156 C 154.871094 161.539062 154.492188 157.542969 154.589844 153.515625 C 154.683594 149.277344 154.765625 145.03125 155.296875 140.8125 C 155.886719 136.003906 156.890625 131.292969 158.15625 126.613281 C 159.539062 121.476562 161.648438 116.660156 164.265625 112.042969 C 164.710938 111.261719 165.195312 110.523438 165.703125 109.777344 C 167.085938 107.730469 168.617188 105.824219 170.621094 104.503906 C 170.726562 104.25 170.832031 104.113281 170.824219 103.976562 C 170.609375 100.308594 171.035156 96.703125 171.761719 93.117188 C 172.585938 89.039062 173.460938 84.960938 174.863281 81.039062 C 175.359375 79.644531 176.027344 78.308594 176.648438 76.957031 C 177.070312 76.039062 177.820312 75.597656 178.824219 75.765625 C 180.648438 76.0625 182.507812 76.207031 184.28125 76.882812 C 188.492188 78.476562 192.417969 80.550781 195.859375 83.484375 C 196.589844 84.105469 197.210938 84.832031 197.917969 85.539062 C 198.761719 85.519531 199.460938 85.085938 200.175781 84.714844 C 204.335938 82.617188 208.789062 81.449219 213.351562 80.648438 C 216.941406 80.015625 220.539062 79.414062 224.160156 78.980469 C 228 78.519531 231.863281 78.191406 235.726562 77.9375 C 238.769531 77.738281 241.820312 77.644531 244.890625 77.78125 C 249.367188 77.980469 253.789062 78.484375 258.191406 79.308594 C 263.320312 80.269531 268.335938 81.660156 273.117188 83.777344 C 277.011719 85.507812 280.695312 87.59375 283.96875 90.347656 C 284.929688 91.15625 285.835938 92.03125 286.828125 92.929688 C 288.632812 92.074219 290.449219 91.253906 292.230469 90.367188 C 297.847656 87.574219 303.824219 85.71875 309.753906 83.757812 C 310.175781 83.621094 310.609375 83.472656 311.042969 83.398438 C 312.265625 83.1875 313.058594 83.640625 313.492188 84.789062 C 313.648438 85.203125 313.796875 85.632812 313.859375 86.078125 C 314.292969 88.808594 314.472656 91.527344 314.136719 94.300781 C 313.574219 98.8125 312.625 103.238281 311.371094 107.605469 C 310.957031 109.039062 310.589844 110.472656 310.175781 111.90625 C 309.34375 114.816406 309.320312 114.847656 307.664062 117.101562 C 307.863281 117.386719 308.066406 117.703125 308.289062 118 C 312.320312 123.34375 314.609375 129.394531 315.78125 135.941406 C 316.371094 139.242188 316.753906 142.574219 316.921875 145.914062 C 317.28125 153.199219 316.339844 160.316406 313.566406 167.128906 C 311.515625 172.144531 308.507812 176.574219 304.816406 180.503906 C 302.925781 182.507812 300.847656 184.320312 298.851562 186.21875 C 298.480469 186.566406 298.089844 186.90625 297.761719 187.210938 C 297.753906 187.875 298.257812 187.78125 298.542969 187.925781 C 300.148438 188.738281 301.585938 189.773438 302.832031 191.089844 C 306.386719 194.855469 309.386719 198.996094 311.550781 203.710938 C 314.484375 210.097656 316.53125 216.75 317.585938 223.71875 C 318.03125 226.660156 318.429688 229.613281 318.558594 232.585938 C 318.683594 236.285156 318.515625 240.007812 317.480469 243.621094 Z M 317.480469 243.621094 " fill-opacity="1" fill-rule="nonzero"/></g><path fill="#faad60" d="M 303.113281 240.300781 C 304.171875 239.386719 305.511719 239.027344 306.808594 238.847656 C 309.386719 238.5 311.972656 238.066406 314.578125 238.488281 C 315.445312 236.167969 315.339844 230.613281 314.367188 227.28125 C 313.964844 226.996094 313.671875 227.355469 313.375 227.503906 C 311.601562 228.410156 309.679688 228.632812 307.75 228.726562 C 307.03125 228.757812 306.261719 228.601562 305.574219 228.359375 C 304.339844 227.925781 303.832031 226.679688 304.285156 225.449219 C 304.71875 224.265625 305.5625 223.414062 306.660156 222.886719 C 308.203125 222.148438 309.785156 221.503906 311.371094 220.851562 C 311.972656 220.597656 312.613281 220.417969 313.300781 220.1875 C 312.792969 217.160156 311.949219 214.347656 310.875 211.46875 C 310.167969 211.519531 309.734375 211.964844 309.238281 212.21875 C 307.570312 213.070312 305.839844 213.757812 303.929688 213.714844 C 303.410156 213.703125 302.871094 213.660156 302.386719 213.492188 C 301.058594 213.027344 300.496094 211.660156 301.140625 210.414062 C 301.40625 209.898438 301.796875 209.421875 302.207031 208.992188 C 303.589844 207.515625 305.140625 206.25 307.042969 205.460938 C 307.378906 205.324219 307.695312 205.144531 308.128906 204.933594 C 307.960938 204.5 307.84375 204.078125 307.652344 203.710938 C 305.207031 198.953125 301.976562 194.8125 297.996094 191.25 C 297.171875 190.511719 296.371094 189.730469 295.453125 188.886719 C 294.746094 189.160156 293.933594 189.5 293.109375 189.792969 C 292.601562 189.984375 292.09375 189.972656 291.597656 189.6875 C 291.207031 189.457031 290.988281 188.875 291.25 188.539062 C 291.609375 188.074219 292.011719 187.621094 292.453125 187.230469 C 293.636719 186.207031 294.851562 185.21875 296.054688 184.214844 C 298.640625 182.066406 301.035156 179.734375 303.292969 177.246094 C 303.789062 176.710938 304.222656 176.121094 304.71875 175.53125 C 304.117188 175.011719 303.515625 175.234375 302.96875 175.246094 C 301.753906 175.265625 300.582031 175.109375 299.464844 174.6875 C 298.617188 174.371094 297.859375 173.894531 297.277344 173.179688 C 295.988281 171.574219 296.8125 169.785156 298.429688 169.226562 C 298.976562 169.035156 299.601562 169.015625 300.191406 169.015625 C 302.050781 169.003906 303.917969 169.046875 305.773438 169.078125 C 306.894531 169.097656 308.011719 169.089844 309.269531 168.632812 C 310.949219 165.777344 311.898438 162.542969 312.699219 159.324219 C 312.085938 158.691406 311.570312 159.105469 311.125 159.21875 C 308.996094 159.769531 306.839844 159.800781 304.6875 159.566406 C 303.75 159.460938 302.796875 159.15625 301.910156 158.808594 C 301.023438 158.460938 300.496094 157.734375 300.496094 156.722656 C 300.496094 155.613281 301.121094 154.867188 302.070312 154.507812 C 302.96875 154.171875 303.929688 153.960938 304.878906 153.863281 C 306.945312 153.652344 309.035156 153.558594 311.117188 153.402344 C 311.84375 153.347656 312.582031 153.265625 313.238281 153.191406 C 314.0625 150.953125 314.09375 146.546875 313.324219 142.804688 C 312.710938 143.089844 312.117188 143.320312 311.558594 143.628906 C 309.351562 144.839844 306.976562 145.347656 304.488281 145.429688 C 303.96875 145.453125 303.441406 145.429688 302.925781 145.335938 C 301.128906 145.019531 300.296875 143.449219 301.121094 141.816406 C 301.40625 141.234375 301.878906 140.675781 302.40625 140.316406 C 303.503906 139.570312 304.667969 138.875 305.871094 138.292969 C 307.613281 137.460938 309.425781 136.773438 311.199219 136.003906 C 311.601562 135.835938 311.960938 135.59375 312.371094 135.375 C 312.265625 133.886719 311.875 132.539062 311.453125 131.199219 C 310.261719 127.425781 308.679688 123.828125 306.417969 120.539062 C 305.742188 119.558594 305.121094 118.546875 304.550781 117.503906 C 304 116.503906 304.128906 116.226562 305.152344 115.523438 C 305.277344 115.4375 305.417969 115.382812 305.53125 115.300781 C 305.585938 115.257812 305.617188 115.183594 305.628906 115.175781 C 306.703125 111.324219 307.8125 107.550781 308.804688 103.734375 C 309.882812 99.632812 310.808594 95.492188 310.949219 91.230469 C 311 89.683594 311 88.121094 310.832031 86.675781 C 310.628906 86.550781 310.589844 86.5 310.523438 86.488281 C 310.453125 86.464844 310.367188 86.457031 310.304688 86.476562 C 302.355469 89.640625 294.417969 92.8125 286.332031 96.039062 C 285.804688 95.648438 285.191406 95.238281 284.632812 94.773438 C 282.4375 92.980469 280.242188 91.199219 277.824219 89.714844 C 274.320312 87.550781 270.539062 85.992188 266.65625 84.683594 C 266.390625 84.589844 266.085938 84.589844 265.71875 84.539062 C 265.242188 85.414062 264.832031 86.277344 264.3125 87.078125 C 262.03125 90.578125 259.53125 93.910156 256.765625 97.039062 C 256.132812 97.757812 255.351562 98.359375 254.570312 98.90625 C 253.429688 99.699219 252.109375 98.894531 251.898438 97.597656 C 251.816406 97.105469 251.835938 96.546875 251.972656 96.058594 C 252.269531 94.996094 252.597656 93.910156 253.050781 92.90625 C 254.371094 89.988281 255.964844 87.214844 257.875 84.632812 C 258.222656 84.15625 258.558594 83.671875 258.898438 83.175781 C 257.492188 82.355469 255.792969 81.921875 251.140625 81.523438 C 248.480469 81.289062 245.820312 80.816406 243.117188 81.089844 C 240.519531 85.71875 237.703125 90.175781 234.386719 94.289062 C 233.871094 94.921875 233.332031 95.542969 232.761719 96.132812 C 232.457031 96.449219 232.085938 96.734375 231.695312 96.925781 C 230.640625 97.429688 229.511719 96.957031 229.214844 95.828125 C 229.078125 95.269531 229.046875 94.636719 229.171875 94.078125 C 229.417969 92.992188 229.734375 91.917969 230.125 90.882812 C 231.210938 88.015625 232.71875 85.371094 234.292969 82.753906 C 234.515625 82.398438 234.695312 82.019531 234.925781 81.605469 C 232.445312 81.289062 226.070312 81.914062 221.214844 82.902344 C 220.917969 83.589844 220.65625 84.347656 220.285156 85.066406 C 218.324219 88.933594 215.777344 92.414062 213.078125 95.785156 C 212.800781 96.132812 212.484375 96.460938 212.136719 96.746094 C 211.546875 97.230469 210.902344 97.578125 210.089844 97.21875 C 209.296875 96.871094 209.042969 96.164062 208.992188 95.417969 C 208.949219 94.835938 209.035156 94.226562 209.148438 93.65625 C 209.636719 91.136719 210.734375 88.871094 211.957031 86.644531 C 212.367188 85.898438 212.800781 85.148438 213.339844 84.191406 C 211.375 84.367188 209.730469 84.820312 208.113281 85.285156 C 205.835938 85.949219 203.597656 86.78125 201.328125 87.480469 C 200.335938 87.785156 199.3125 87.996094 198.289062 88.132812 C 197.296875 88.269531 196.492188 87.835938 195.636719 87.257812 C 191.953125 84.757812 188.40625 82.019531 184.164062 80.445312 C 182.496094 79.824219 180.839844 79.160156 179.214844 78.539062 C 179.035156 78.675781 178.84375 78.75 178.8125 78.867188 C 177.894531 81.847656 176.914062 84.8125 176.121094 87.816406 C 175.214844 91.261719 174.441406 94.753906 173.703125 98.242188 C 173.398438 99.699219 173.3125 101.195312 173.144531 102.671875 C 173.113281 102.964844 173.039062 103.304688 173.144531 103.554688 C 173.765625 104.96875 173.039062 105.992188 172.207031 106.992188 C 171.878906 107.394531 171.5625 107.816406 171.222656 108.214844 C 166.632812 113.738281 163.570312 120.074219 161.511719 126.90625 C 159.613281 133.191406 158.484375 139.632812 157.945312 146.179688 C 157.691406 149.289062 157.460938 152.421875 157.492188 155.539062 C 157.523438 159.25 157.828125 162.972656 158.070312 166.683594 C 158.21875 169.066406 158.664062 171.40625 159.179688 173.726562 C 159.304688 174.304688 159.476562 174.875 159.644531 175.53125 C 160.011719 175.601562 160.363281 175.71875 160.710938 175.738281 C 163.980469 175.929688 167.253906 176.066406 170.527344 176.300781 C 175.65625 176.65625 180.777344 177.070312 185.894531 177.480469 C 187.53125 177.605469 189.148438 177.839844 190.78125 177.976562 C 192.21875 178.101562 193.527344 178.628906 194.835938 179.144531 C 195.101562 179.25 195.351562 179.441406 195.574219 179.628906 C 195.851562 179.863281 195.859375 180.347656 195.679688 180.664062 C 196.492188 180.925781 197.296875 181.242188 197.992188 181.6875 C 198.171875 181.558594 198.457031 181.476562 198.65625 181.496094 C 199.015625 181.527344 199.363281 181.707031 199.691406 181.875 C 202.753906 183.414062 204.316406 185.996094 204.738281 189.296875 C 205.128906 192.324219 205.402344 195.359375 205.707031 198.394531 C 205.984375 201.050781 206.234375 203.710938 206.519531 206.609375 C 208.378906 206.851562 209.992188 207.082031 211.621094 207.261719 C 215.84375 207.714844 220.042969 208.328125 224.296875 208.421875 C 226.15625 208.464844 228.023438 208.675781 229.878906 208.664062 C 234.417969 208.632812 238.957031 208.472656 243.496094 208.085938 C 247.359375 207.746094 251.191406 207.242188 254.972656 206.410156 C 264.324219 204.34375 272.851562 200.398438 280.820312 195.179688 C 282.058594 194.367188 283.386719 193.695312 284.707031 193 C 284.894531 192.902344 285.328125 193 285.488281 193.15625 C 285.65625 193.324219 285.742188 193.703125 285.6875 193.957031 C 285.496094 194.875 284.84375 195.519531 284.210938 196.140625 C 282.765625 197.542969 281.179688 198.785156 279.4375 199.796875 C 272.664062 203.761719 265.539062 206.902344 257.894531 208.824219 C 253.113281 210.023438 248.269531 210.6875 243.359375 211.101562 C 238.367188 211.519531 233.386719 211.511719 228.390625 211.457031 C 223.917969 211.40625 219.472656 210.972656 215.0625 210.257812 C 212.359375 209.8125 209.644531 209.414062 206.796875 208.96875 C 206.878906 211.035156 207.039062 213.09375 207.175781 215.148438 C 207.3125 217.226562 207.492188 219.300781 207.652344 221.378906 C 207.808594 223.527344 207.957031 225.679688 208.09375 227.839844 C 208.230469 229.917969 208.347656 231.996094 208.484375 234.082031 C 208.609375 236.160156 208.738281 238.246094 208.875 240.324219 C 209.011719 242.390625 209.171875 244.457031 209.328125 246.628906 C 215.273438 247.230469 221.171875 247.230469 227 248.9375 C 227.199219 248.839844 227.546875 248.703125 227.855469 248.523438 C 230.429688 246.996094 233.195312 245.921875 236.046875 245.035156 C 244.363281 242.464844 252.785156 240.3125 261.261719 238.332031 C 262.773438 237.972656 264.25 237.433594 265.707031 236.867188 C 267.226562 236.273438 268.355469 235.199219 268.882812 233.617188 C 269.304688 232.351562 269.78125 231.078125 269.992188 229.769531 C 270.59375 225.933594 270.816406 222.085938 270.359375 218.207031 C 270.203125 216.8125 270.277344 215.378906 270.277344 213.96875 C 270.277344 213.683594 270.394531 213.386719 270.488281 213.113281 C 270.59375 212.796875 271.246094 212.691406 271.425781 212.964844 C 271.617188 213.269531 271.785156 213.597656 271.902344 213.945312 C 272.863281 216.78125 273.378906 219.710938 273.402344 222.707031 C 273.421875 225.605469 273.410156 228.515625 272.820312 231.371094 C 272.566406 232.605469 272.21875 233.828125 271.785156 235.011719 C 270.972656 237.203125 269.441406 238.773438 267.332031 239.796875 C 265.453125 240.714844 263.480469 241.367188 261.441406 241.851562 C 253.980469 243.601562 246.558594 245.5 239.210938 247.683594 C 236.574219 248.460938 233.914062 249.191406 231.421875 250.390625 C 229.945312 251.109375 228.507812 251.898438 227.261719 252.984375 C 224.761719 255.175781 223.746094 257.90625 224.445312 261.1875 C 224.953125 263.558594 226.375 265.191406 228.667969 265.984375 C 230.355469 266.574219 232.128906 266.859375 233.921875 266.910156 C 237.796875 267.027344 241.671875 267.007812 245.535156 266.617188 C 246.050781 266.5625 246.578125 266.554688 247.097656 266.519531 C 252.449219 266.183594 257.8125 266.003906 263.152344 265.476562 C 269.441406 264.867188 275.753906 264.285156 281.941406 262.882812 C 288.992188 261.292969 295.90625 259.269531 302.300781 255.769531 C 304.265625 254.691406 306.144531 253.480469 307.90625 252.109375 C 309.933594 250.527344 311.601562 248.652344 312.730469 246.332031 C 312.890625 246.003906 312.984375 245.65625 313.101562 245.332031 C 312.476562 244.855469 311.886719 245.097656 311.316406 245.152344 C 309.140625 245.332031 307 245.097656 304.910156 244.519531 C 304.277344 244.339844 303.644531 244.035156 303.136719 243.632812 C 302.007812 242.707031 302.039062 241.242188 303.113281 240.300781 Z M 294.976562 100.785156 C 295.988281 100.351562 297.097656 100.121094 298.175781 99.867188 C 298.671875 99.75 299.210938 99.769531 299.292969 99.769531 C 299.8125 99.738281 299.886719 99.738281 299.960938 99.71875 C 301.742188 99.433594 302.40625 100.414062 302.207031 102.101562 C 302.015625 103.691406 301.332031 105.105469 300.242188 106.277344 C 299.285156 107.308594 298.039062 107.519531 296.78125 106.910156 C 295.292969 106.179688 294.394531 104.894531 293.859375 103.398438 C 293.46875 102.324219 293.910156 101.246094 294.976562 100.785156 Z M 182.316406 88.816406 C 182.519531 88.375 182.929688 88.195312 183.414062 88.175781 C 185 88.121094 187.289062 89.578125 187.921875 91.019531 C 188.261719 91.800781 188.113281 92.527344 187.605469 93.109375 C 186.433594 94.457031 184.894531 95.195312 183.121094 95.28125 C 181.875 95.332031 181.15625 94.363281 181.136719 92.835938 C 181.050781 91.359375 181.726562 90.09375 182.316406 88.816406 Z M 167.984375 163.171875 C 167.804688 162.984375 167.613281 162.625 167.675781 162.414062 C 167.761719 162.097656 168.035156 161.824219 168.269531 161.570312 C 168.351562 161.476562 168.542969 161.464844 168.691406 161.457031 C 170.601562 161.285156 172.351562 161.738281 173.9375 162.792969 C 174.167969 162.953125 174.335938 163.214844 174.484375 163.46875 C 174.546875 163.574219 174.496094 163.742188 174.496094 163.921875 C 173.976562 164.363281 173.3125 164.46875 172.648438 164.375 C 171.339844 164.164062 170.042969 163.890625 168.742188 163.605469 C 168.480469 163.523438 168.171875 163.375 167.984375 163.171875 Z M 171.625 170.871094 C 170.632812 170.796875 169.734375 170.5 169.015625 169.792969 C 168.871094 169.648438 168.710938 169.351562 168.773438 169.214844 C 168.878906 168.984375 169.132812 168.667969 169.355469 168.644531 C 171.234375 168.421875 173.027344 168.644531 174.886719 169.859375 C 173.808594 170.859375 172.742188 170.953125 171.625 170.871094 Z M 174.03125 158.269531 C 171.898438 157.988281 169.851562 157.40625 167.867188 156.574219 C 167.730469 156.519531 167.59375 156.457031 167.464844 156.382812 C 167.066406 156.152344 166.757812 155.847656 166.8125 155.328125 C 166.851562 154.898438 167.382812 154.644531 168.066406 154.730469 C 168.425781 154.78125 168.804688 154.824219 169.132812 154.972656 C 170.875 155.761719 172.617188 156.574219 174.347656 157.40625 C 174.515625 157.492188 174.621094 157.710938 174.929688 158.070312 C 174.453125 158.1875 174.230469 158.292969 174.03125 158.269531 Z M 225.519531 175.339844 C 223.992188 177.320312 222.089844 178.902344 219.714844 179.695312 C 216.378906 180.8125 213.425781 179.894531 210.890625 177.53125 C 210.5625 177.238281 210.320312 176.859375 209.878906 176.320312 C 208.683594 177.457031 207.492188 178.3125 205.972656 178.597656 C 202.878906 179.175781 200.21875 178.429688 198.128906 176.015625 C 196.769531 174.445312 196.453125 172.578125 196.882812 170.585938 C 196.925781 170.40625 197.160156 170.195312 197.339844 170.152344 C 197.507812 170.109375 197.78125 170.214844 197.90625 170.351562 C 198.109375 170.5625 198.257812 170.839844 198.371094 171.101562 C 198.519531 171.4375 198.636719 171.796875 198.753906 172.144531 C 200.0625 176.277344 205.136719 176.929688 207.691406 174.707031 C 207.914062 174.515625 208.136719 174.328125 208.335938 174.148438 C 208.421875 170.382812 208.503906 166.683594 208.589844 162.785156 C 208.359375 162.6875 207.976562 162.507812 207.585938 162.351562 C 206.625 161.972656 205.601562 161.6875 204.714844 161.179688 C 204.03125 160.789062 203.417969 160.179688 202.953125 159.535156 C 202.203125 158.515625 202.585938 157.5 203.796875 157.101562 C 205.148438 156.648438 206.554688 156.449219 207.976562 156.617188 C 210.046875 156.859375 212.117188 157.089844 214.152344 157.46875 C 215.460938 157.710938 216.730469 158.207031 217.699219 159.21875 C 218.4375 160 218.4375 160.863281 217.613281 161.519531 C 216.65625 162.277344 215.566406 162.71875 214.332031 162.773438 C 213.371094 162.816406 212.410156 162.867188 211.3125 162.921875 C 211.269531 163.394531 211.1875 163.804688 211.199219 164.21875 C 211.261719 167.191406 211.34375 170.152344 211.429688 173.125 C 211.441406 173.410156 211.480469 173.746094 211.628906 173.96875 C 213.222656 176.363281 216.421875 177.605469 219.050781 176.519531 C 219.460938 176.351562 219.820312 176.078125 220.203125 175.835938 C 221.648438 174.886719 222.902344 173.738281 223.925781 172.34375 C 224.148438 172.050781 224.359375 171.734375 224.601562 171.460938 C 225.046875 170.953125 225.617188 170.734375 225.953125 170.945312 C 226.429688 171.238281 226.660156 171.703125 226.660156 172.261719 C 226.652344 173.410156 226.207031 174.453125 225.519531 175.339844 Z M 262.316406 169.519531 C 262.792969 169.351562 263.289062 169.203125 263.796875 169.128906 C 264.226562 169.066406 264.671875 169.121094 265.113281 169.121094 C 265.125 169.078125 265.125 169.046875 265.136719 169.003906 C 265.929688 169.140625 266.710938 169.257812 267.488281 169.425781 C 267.648438 169.457031 267.890625 169.753906 267.859375 169.890625 C 267.816406 170.140625 267.648438 170.511719 267.457031 170.574219 C 265.90625 171.046875 264.324219 171.34375 262.6875 171.113281 C 262.550781 171.089844 262.382812 171.039062 262.285156 170.953125 C 262.074219 170.773438 261.789062 170.574219 261.738281 170.34375 C 261.652344 169.929688 261.960938 169.648438 262.316406 169.519531 Z M 262.867188 177.839844 C 262.667969 177.839844 262.414062 177.734375 262.277344 177.59375 C 262.074219 177.40625 261.820312 177.140625 261.820312 176.898438 C 261.820312 176.667969 262.054688 176.394531 262.253906 176.203125 C 262.402344 176.066406 262.667969 175.949219 262.855469 175.972656 C 264.300781 176.183594 265.800781 176.003906 267.183594 176.613281 C 267.363281 176.699219 267.5 176.878906 267.890625 177.207031 C 266.085938 177.976562 264.472656 177.871094 262.867188 177.839844 Z M 262.285156 164.238281 C 262.136719 164.269531 261.960938 164.324219 261.851562 164.257812 C 261.609375 164.121094 261.292969 163.976562 261.210938 163.742188 C 261.125 163.523438 261.199219 163.132812 261.347656 162.929688 C 261.570312 162.65625 261.894531 162.425781 262.222656 162.296875 C 262.984375 162.003906 263.753906 161.65625 264.546875 161.570312 C 266.160156 161.402344 267.796875 161.382812 269.421875 161.316406 C 269.589844 161.308594 269.757812 161.496094 270.296875 161.8125 C 267.4375 162.941406 264.894531 163.699219 262.285156 164.238281 Z M 277.65625 136.4375 C 277.296875 136.984375 276.875 137.566406 276.335938 137.902344 C 275.027344 138.734375 273.6875 139.578125 272.25 140.171875 C 267.089844 142.289062 261.980469 144.535156 256.554688 145.9375 C 256.34375 145.988281 256.152344 146.125 255.847656 146.285156 C 255.6875 147.613281 255.519531 149.003906 255.339844 150.394531 C 254.917969 153.558594 253.757812 156.425781 251.835938 158.96875 C 249.125 162.550781 245.449219 164.460938 241.046875 164.996094 C 239.949219 165.132812 238.8125 165.1875 237.703125 165.09375 C 232.328125 164.671875 228.53125 161.910156 226.1875 157.113281 C 224.960938 154.59375 224.488281 151.894531 224.433594 149.109375 C 224.414062 148.222656 224.402344 147.347656 224.390625 146.367188 C 221.121094 146.71875 218.109375 145.703125 215.019531 145.558594 C 211.746094 145.398438 208.472656 145.1875 205.203125 145.050781 C 204.25 145.007812 203.28125 145.113281 202.300781 145.410156 C 202.078125 146.539062 201.886719 147.625 201.632812 148.699219 C 199.523438 157.585938 191.585938 160.980469 185.894531 160.589844 C 182.527344 160.359375 179.730469 159 177.523438 156.457031 C 175.519531 154.140625 174.433594 151.398438 173.976562 148.394531 C 173.609375 145.957031 173.410156 143.511719 173.871094 141.066406 C 173.925781 140.78125 173.882812 140.484375 173.882812 140.191406 C 171.117188 138.347656 168.394531 136.542969 165.691406 134.699219 C 164.902344 134.160156 164.160156 133.519531 163.445312 132.875 C 163.117188 132.578125 162.875 132.1875 162.632812 131.820312 C 162.378906 131.410156 162.355469 130.988281 162.671875 130.578125 C 162.988281 130.164062 163.433594 130.121094 163.875 130.21875 C 164.234375 130.292969 164.59375 130.4375 164.910156 130.609375 C 165.753906 131.070312 166.609375 131.523438 167.414062 132.074219 C 169.144531 133.242188 170.832031 134.464844 172.53125 135.65625 C 173.132812 136.078125 173.746094 136.492188 174.304688 136.871094 C 175.035156 136.667969 175.023438 136.046875 175.191406 135.617188 C 175.855469 133.949219 176.636719 132.347656 177.683594 130.894531 C 179.625 128.203125 182.148438 126.339844 185.421875 125.570312 C 188.523438 124.839844 191.488281 125.367188 194.320312 126.707031 C 195.34375 127.191406 196.101562 128.046875 196.695312 129.003906 C 196.894531 129.320312 196.90625 129.5 196.683594 130.015625 C 197.042969 130.449219 197.316406 130.945312 197.550781 131.472656 C 197.917969 131.273438 198.363281 131.410156 198.648438 131.703125 C 199.058594 132.117188 199.429688 132.601562 199.714844 133.117188 C 200.714844 134.886719 201.296875 136.796875 201.644531 138.789062 C 201.835938 139.875 202.023438 140.960938 202.246094 142.257812 C 209.910156 141.742188 217.308594 141.960938 224.667969 143.816406 C 224.910156 142.804688 225.140625 141.804688 225.40625 140.800781 C 226.164062 137.882812 227.464844 135.214844 229.351562 132.863281 C 232.289062 129.214844 236.097656 127.328125 240.816406 127.488281 C 241.765625 127.519531 242.738281 127.75 243.644531 128.035156 C 244.636719 128.339844 245.566406 128.828125 246.527344 129.226562 C 246.726562 129.3125 246.96875 129.375 247.128906 129.511719 C 247.742188 130.027344 248.300781 130.617188 248.945312 131.09375 C 249.535156 131.535156 250.242188 131.808594 250.824219 132.261719 C 252.015625 133.203125 252.777344 134.507812 253.429688 135.847656 C 254.359375 137.722656 254.90625 139.738281 255.277344 141.792969 C 255.351562 142.226562 255.457031 142.648438 255.574219 143.207031 C 256.144531 143.058594 256.648438 142.984375 257.113281 142.796875 C 262.75 140.464844 268.375 138.113281 274.003906 135.773438 C 274.761719 135.457031 275.511719 135.140625 276.273438 134.855469 C 276.746094 134.675781 277.167969 134.847656 277.484375 135.195312 C 277.835938 135.550781 277.898438 136.070312 277.65625 136.4375 Z M 277.65625 136.4375 " fill-opacity="1" fill-rule="nonzero"/><path fill="#cad6dd" d="M 195.351562 180.90625 C 194.929688 181.023438 194.476562 181.105469 194.042969 181.097656 C 191.660156 181.054688 189.273438 181.042969 186.898438 180.90625 C 183.625 180.726562 180.363281 180.421875 177.09375 180.210938 C 170.398438 179.777344 163.707031 179.355469 157.015625 178.957031 C 154.039062 178.777344 151.0625 178.617188 148.085938 178.492188 C 143.019531 178.28125 137.964844 178.132812 132.894531 177.910156 C 127.753906 177.691406 122.625 177.425781 117.496094 177.183594 C 117.199219 177.175781 116.90625 177.140625 116.597656 177.132812 C 111.605469 176.941406 106.625 176.773438 101.628906 176.550781 C 97.386719 176.363281 93.15625 176.097656 88.910156 175.867188 C 88.46875 175.84375 88.015625 175.804688 87.570312 175.792969 C 82.578125 175.59375 77.597656 175.414062 72.601562 175.203125 C 69.40625 175.066406 66.195312 175.003906 63.007812 174.707031 C 61.222656 174.539062 60.367188 175.507812 59.945312 176.6875 C 59.703125 177.386719 59.515625 178.121094 59.472656 178.859375 C 59.367188 180.863281 59.21875 182.878906 59.3125 184.878906 C 59.628906 191.195312 59.96875 197.511719 60.453125 203.816406 C 60.855469 209 61.476562 214.179688 61.996094 219.355469 C 62.351562 222.980469 62.679688 226.609375 63.0625 230.234375 C 63.429688 233.785156 63.84375 237.328125 64.222656 240.882812 C 64.589844 244.359375 64.917969 247.839844 65.277344 251.320312 C 65.65625 254.945312 66.070312 258.5625 66.429688 262.1875 C 66.691406 264.855469 66.945312 267.523438 67.113281 270.191406 C 67.167969 271.054688 66.976562 271.949219 66.808594 272.816406 C 66.777344 272.960938 66.542969 273.121094 66.324219 273.207031 C 66.714844 274.039062 67.421875 274.605469 68.273438 274.871094 C 68.265625 274.734375 68.265625 274.597656 68.273438 274.480469 C 68.339844 274.082031 68.75 273.890625 69.128906 273.910156 C 69.941406 273.964844 70.777344 273.996094 71.558594 274.1875 C 77.996094 275.746094 84.5 276.96875 91.042969 277.929688 C 96.933594 278.792969 102.835938 279.53125 108.734375 280.3125 C 114.042969 281.015625 119.351562 281.734375 124.664062 282.386719 C 129.023438 282.925781 133.382812 283.367188 137.742188 283.882812 C 143.429688 284.558594 149.109375 285.308594 154.800781 285.949219 C 158.347656 286.351562 161.914062 286.636719 165.460938 286.984375 C 169.164062 287.351562 172.859375 287.765625 176.566406 288.132812 C 178.78125 288.355469 181.007812 288.523438 183.234375 288.722656 C 185.535156 288.933594 187.839844 289.101562 190.128906 289.367188 C 193.546875 289.746094 196.96875 289.714844 200.386719 289.566406 C 201.414062 289.523438 202.425781 289.167969 203.429688 288.925781 C 203.859375 288.820312 204.261719 288.617188 204.695312 288.480469 C 205.527344 288.21875 206.164062 288.355469 206.234375 288.828125 C 206.332031 289.484375 205.792969 289.726562 205.359375 289.96875 C 203.671875 290.925781 201.886719 291.675781 199.914062 291.824219 C 197.835938 291.992188 195.765625 292.160156 193.800781 292.320312 C 190.105469 292.042969 186.550781 291.78125 182.992188 291.507812 C 180.914062 291.347656 178.84375 291.136719 176.765625 290.980469 C 172.3125 290.632812 167.855469 290.324219 163.414062 289.9375 C 159.707031 289.609375 156.011719 289.199219 152.308594 288.808594 C 149.058594 288.460938 145.796875 288.101562 142.542969 287.742188 C 139.441406 287.394531 136.335938 287.046875 133.234375 286.679688 C 130.058594 286.308594 126.878906 285.917969 123.703125 285.527344 C 120.523438 285.140625 117.359375 284.75 114.179688 284.347656 C 111.449219 284 108.722656 283.664062 105.988281 283.292969 C 102.011719 282.757812 98.03125 282.238281 94.050781 281.648438 C 89.933594 281.039062 85.820312 280.40625 81.710938 279.6875 C 78.492188 279.128906 75.273438 278.527344 72.171875 277.441406 C 71.398438 277.167969 70.628906 276.875 69.910156 276.503906 C 69.488281 276.285156 69.089844 276 68.738281 275.671875 C 68.582031 276.019531 68.496094 276.378906 68.402344 276.746094 C 68.699219 276.757812 68.980469 276.9375 69.140625 277.273438 C 69.203125 277.410156 69.257812 277.546875 69.289062 277.695312 C 69.785156 279.679688 71.25 280.605469 73.078125 281.070312 C 75.019531 281.566406 76.972656 282.0625 78.957031 282.398438 C 84.457031 283.324219 89.96875 284.222656 95.488281 285.023438 C 99.539062 285.613281 103.613281 286.023438 107.679688 286.507812 C 112.40625 287.070312 117.136719 287.628906 121.875 288.144531 C 125.433594 288.523438 128.992188 288.828125 132.546875 289.1875 C 136.476562 289.578125 140.402344 289.96875 144.328125 290.367188 C 147.738281 290.714844 151.148438 291.042969 154.546875 291.421875 C 157.722656 291.769531 160.898438 292.191406 164.078125 292.5625 C 167.105469 292.917969 170.148438 293.246094 173.175781 293.617188 C 176.425781 294.003906 179.679688 294.40625 182.929688 294.796875 C 185.960938 295.15625 189 295.492188 192.027344 295.851562 C 195.207031 296.230469 198.382812 296.640625 201.550781 297.050781 C 201.84375 297.09375 202.140625 297.125 202.425781 297.222656 C 202.816406 297.347656 203.027344 297.632812 203.039062 298.054688 C 203.039062 298.105469 203.039062 298.160156 203.027344 298.210938 C 204.039062 298.167969 205.03125 298.074219 206.015625 297.84375 C 205.78125 297.738281 205.550781 297.601562 205.339844 297.503906 C 205.351562 296.726562 205.824219 296.472656 206.34375 296.386719 C 213.003906 295.34375 219.273438 292.949219 225.5625 290.726562 C 235.65625 287.164062 245.660156 283.324219 255.679688 279.542969 C 260.828125 277.601562 265.949219 275.585938 271.058594 273.519531 C 272.988281 272.742188 274.816406 271.730469 276.707031 270.863281 C 278.339844 270.117188 279.152344 268.796875 279.578125 266.964844 C 279.144531 266.910156 278.796875 266.796875 278.46875 266.847656 C 273.769531 267.640625 269.042969 268.199219 264.292969 268.597656 C 260.058594 268.957031 255.828125 269.230469 251.59375 269.503906 C 248.691406 269.695312 245.789062 269.820312 242.894531 269.988281 C 242.410156 270.019531 241.914062 270.085938 241.195312 270.160156 C 241.554688 270.441406 241.691406 270.652344 241.859375 270.683594 C 244.183594 271.210938 246.503906 271.71875 248.828125 272.226562 C 249.292969 272.332031 249.609375 272.5625 249.871094 273.089844 C 249.578125 273.277344 249.355469 273.46875 249.101562 273.5625 C 244.933594 275.15625 240.753906 276.738281 236.582031 278.316406 C 229.140625 281.152344 221.519531 283.453125 213.910156 285.804688 C 213.339844 285.984375 212.769531 286.203125 212.191406 286.257812 C 210.921875 286.371094 209.71875 286.550781 208.695312 287.417969 C 208.367188 287.691406 208.210938 287.59375 207.25 287.109375 C 207.269531 286.929688 207.25 286.6875 207.335938 286.519531 C 207.96875 285.285156 208.074219 283.949219 208.042969 282.609375 C 207.976562 279.855469 207.894531 277.105469 207.765625 274.355469 C 207.535156 269.527344 207.269531 264.699219 207.007812 259.867188 C 206.765625 255.484375 206.511719 251.097656 206.269531 246.722656 C 206.097656 243.75 205.941406 240.777344 205.761719 237.804688 C 205.421875 232.089844 205.105469 226.363281 204.707031 220.652344 C 204.378906 215.980469 203.933594 211.308594 203.554688 206.640625 C 203.207031 202.488281 202.910156 198.332031 202.519531 194.1875 C 202.332031 192.125 202.023438 190.058594 201.71875 188 C 201.476562 186.386719 200.695312 185.089844 199.34375 184.109375 C 198.753906 183.6875 198.277344 183.078125 197.824219 182.496094 C 197.695312 182.328125 197.71875 181.886719 197.855469 181.707031 C 197.886719 181.675781 197.917969 181.632812 197.960938 181.601562 C 197.265625 181.160156 196.460938 180.84375 195.648438 180.578125 C 195.605469 180.769531 195.5 180.875 195.351562 180.90625 Z M 140.359375 230.878906 C 139.90625 234.03125 138.351562 236.632812 135.832031 238.5625 C 132.464844 241.136719 128.601562 242.082031 124.453125 241.25 C 121.167969 240.597656 118.636719 238.6875 116.871094 235.8125 C 115.574219 233.703125 114.710938 231.40625 114.214844 228.988281 C 113.558594 225.816406 113.570312 222.632812 114.539062 219.511719 C 115.046875 217.867188 115.808594 216.339844 116.90625 215 C 120.007812 211.226562 124.050781 209.835938 128.8125 210.320312 C 129.910156 210.433594 131.070312 210.488281 132.019531 211.152344 C 132.230469 211.300781 132.390625 211.519531 132.558594 211.765625 C 133.371094 212.058594 134.058594 212.597656 134.660156 213.230469 C 134.722656 213.207031 134.785156 213.207031 134.828125 213.230469 C 135.230469 213.398438 135.683594 213.585938 135.945312 213.914062 C 136.6875 214.84375 137.46875 215.769531 137.996094 216.8125 C 140.230469 221.242188 141.066406 225.953125 140.359375 230.878906 Z M 212.304688 288.058594 C 212.421875 287.976562 212.546875 287.890625 212.6875 287.859375 C 219.90625 286.046875 226.894531 283.503906 233.882812 280.953125 C 243.445312 277.464844 252.964844 273.828125 262.507812 270.265625 C 263.203125 270 263.902344 269.746094 264.609375 269.535156 C 264.957031 269.429688 265.410156 269.390625 265.546875 269.820312 C 265.609375 270.03125 265.441406 270.421875 265.253906 270.582031 C 264.746094 271.011719 264.195312 271.414062 263.605469 271.71875 C 262.148438 272.46875 260.703125 273.257812 259.171875 273.828125 C 245.863281 278.78125 232.5 283.589844 218.851562 287.542969 C 217.425781 287.953125 215.96875 288.292969 214.523438 288.628906 C 214.015625 288.746094 213.5 288.777344 212.992188 288.839844 C 212.757812 288.746094 212.539062 288.691406 212.359375 288.574219 C 212.261719 288.511719 212.230469 288.34375 212.199219 288.207031 C 212.191406 288.175781 212.253906 288.089844 212.304688 288.058594 Z M 221.921875 254.195312 C 221.5 256.085938 221.140625 257.664062 220.75 259.414062 C 219.386719 260.152344 217.898438 260.964844 216.242188 261.871094 C 214.320312 261.429688 212.253906 260.953125 210.226562 260.480469 C 209.730469 258.308594 209.550781 253.945312 209.878906 251.878906 C 211.164062 252.164062 212.441406 252.4375 213.730469 252.722656 C 215.101562 253.015625 216.476562 253.332031 217.859375 253.585938 C 219.15625 253.816406 220.464844 253.976562 221.921875 254.195312 Z M 220.929688 261.039062 C 221.488281 263.125 222.28125 264.929688 223.695312 266.699219 C 221.265625 266.449219 219.199219 265.71875 217.054688 265.339844 C 214.871094 264.949219 212.707031 264.496094 210.351562 264.042969 C 209.992188 263.621094 210.101562 262.988281 210.269531 262.355469 C 210.4375 262.304688 210.5625 262.21875 210.691406 262.242188 C 212 262.460938 213.328125 262.632812 214.617188 262.9375 C 216.019531 263.273438 217.246094 262.84375 218.460938 262.273438 C 219.25 261.914062 220.011719 261.503906 220.929688 261.039062 Z M 224 251.328125 C 223.558594 251.960938 223.230469 252.4375 222.914062 252.890625 C 222.609375 252.910156 222.375 252.972656 222.175781 252.941406 C 218.324219 252.226562 214.480469 251.488281 210.628906 250.761719 C 209.550781 250.558594 209.464844 250.453125 209.5625 249.03125 C 210.195312 248.746094 210.839844 248.96875 211.472656 249.085938 C 213.792969 249.515625 216.117188 250.011719 218.4375 250.433594 C 220.179688 250.75 221.933594 251.003906 224 251.328125 Z M 224 251.328125 " fill-opacity="1" fill-rule="nonzero"/><path fill="#5a6166" d="M 236.933594 275.039062 C 234.957031 273.933594 232.613281 273.785156 230.398438 272.867188 C 231.179688 272.035156 232.097656 271.6875 232.941406 271.253906 C 233.226562 271.105469 233.671875 271.171875 234.019531 271.222656 C 235.042969 271.390625 236.066406 271.59375 237.078125 271.824219 C 239.835938 272.445312 242.578125 273.164062 245.925781 273.132812 C 245.144531 273.5625 244.816406 273.816406 244.4375 273.953125 C 233.957031 277.78125 223.390625 281.34375 212.546875 284.054688 C 212.136719 284.160156 211.703125 284.199219 211.164062 284.296875 C 211.164062 283.535156 211.164062 282.894531 211.164062 282.144531 C 212.011719 281.890625 212.792969 282.082031 213.574219 282.25 C 214.289062 282.398438 215.007812 282.597656 215.714844 282.417969 C 215.949219 281.996094 215.703125 281.796875 215.441406 281.691406 C 214.058594 281.164062 212.664062 280.660156 211.207031 280.121094 C 210.945312 279.636719 210.878906 279.085938 211.261719 278.582031 C 214.058594 279.152344 216.824219 279.71875 219.589844 280.269531 C 219.789062 280.3125 220.011719 280.207031 220.414062 280.140625 C 220.136719 279.867188 220 279.59375 219.777344 279.507812 C 218.386719 278.984375 216.980469 278.507812 215.589844 277.992188 C 215.335938 277.898438 215.113281 277.695312 214.742188 277.464844 C 215.800781 276.894531 216.695312 276.410156 217.574219 275.9375 C 221.121094 276.535156 224.464844 277.886719 228.042969 278.042969 C 228.074219 278.042969 228.105469 277.929688 228.214844 277.75 C 226.40625 276.714844 224.308594 276.472656 222.34375 275.597656 C 222.902344 274.660156 223.851562 274.21875 224.707031 273.710938 C 225.023438 273.519531 225.574219 273.625 225.996094 273.710938 C 228.105469 274.164062 230.199219 274.691406 232.308594 275.125 C 233.542969 275.375 234.808594 275.515625 236.066406 275.671875 C 236.445312 275.691406 236.804688 275.585938 236.933594 275.039062 Z M 228.992188 270.042969 C 228.351562 269.882812 227.695312 269.746094 227.042969 269.589844 C 224.445312 268.96875 224.445312 268.96875 222.144531 270.515625 C 222.089844 270.546875 222.070312 270.632812 221.996094 270.75 C 223.695312 271.550781 225.574219 271.6875 227.335938 272.191406 C 227.539062 272.246094 227.800781 272.234375 227.992188 272.152344 C 228.992188 271.730469 229.996094 271.285156 231.410156 270.664062 C 230.28125 270.371094 229.636719 270.199219 228.992188 270.042969 Z M 216.726562 266.953125 C 215.640625 267.480469 214.691406 268.019531 213.6875 268.945312 C 215.820312 269.453125 217.730469 269.90625 219.503906 270.328125 C 220.445312 269.714844 221.234375 269.199219 222.40625 268.429688 C 220.234375 267.871094 218.449219 267.40625 216.726562 266.953125 Z M 221.308594 274.027344 C 221.742188 273.667969 222.472656 273.660156 222.648438 272.855469 C 221.015625 272.382812 219.441406 271.75 217.753906 271.664062 C 216.855469 272.234375 216 272.773438 214.976562 273.414062 C 216.613281 274.28125 218.269531 274.386719 219.925781 274.996094 C 220.464844 274.628906 220.917969 274.363281 221.308594 274.027344 Z M 210.691406 269.746094 C 210.511719 270.769531 210.5625 271.625 210.734375 272.539062 C 211.324219 272.710938 211.882812 272.878906 212.367188 273.015625 C 212.9375 272.644531 213.414062 272.308594 213.929688 272.023438 C 214.492188 271.71875 215.09375 271.476562 215.957031 271.074219 C 214.015625 270.589844 212.410156 270.179688 210.691406 269.746094 Z M 210.816406 276.019531 C 210.933594 276.894531 211.863281 277.371094 212.613281 276.925781 C 213.351562 276.496094 214.046875 275.988281 214.785156 275.503906 C 213.699219 274.828125 212.898438 274.597656 210.808594 274.394531 C 210.808594 275.039062 210.753906 275.535156 210.816406 276.019531 Z M 210.449219 265.582031 C 210.226562 266.5625 210.195312 267.386719 210.703125 268.269531 C 212.222656 268.132812 213.359375 267.355469 214.648438 266.617188 C 213.277344 265.878906 211.894531 265.785156 210.449219 265.582031 Z M 210.449219 265.582031 " fill-opacity="1" fill-rule="nonzero"/><path fill="#ffffff" d="M 132.84375 212.152344 C 132.738281 212.027344 132.644531 211.890625 132.558594 211.765625 C 133.371094 212.058594 134.058594 212.597656 134.660156 213.230469 C 134.523438 213.261719 134.375 213.34375 134.257812 213.429688 C 134.171875 213.492188 134.121094 213.726562 134.164062 213.832031 C 134.382812 214.292969 134.636719 214.746094 134.914062 215.191406 C 137.457031 219.34375 138.871094 223.8125 138.628906 228.738281 C 138.351562 234.175781 135.164062 238.234375 129.867188 239.449219 C 125.285156 240.492188 121.253906 239.320312 118.402344 235.03125 C 117.992188 234.417969 117.632812 233.753906 117.316406 233.089844 C 116.15625 230.632812 115.574219 228.03125 115.480469 225.332031 C 115.394531 223.003906 115.734375 220.714844 116.746094 218.59375 C 118.382812 215.179688 120.914062 212.882812 124.777344 212.207031 C 126.648438 211.878906 128.464844 211.828125 130.320312 212.195312 C 131.089844 212.34375 131.894531 212.628906 132.84375 212.152344 Z M 196.515625 130.417969 C 196.589844 130.261719 196.640625 130.132812 196.695312 130.015625 C 197.054688 130.449219 197.328125 130.945312 197.558594 131.472656 C 197.515625 131.492188 197.476562 131.523438 197.433594 131.558594 C 197.167969 131.769531 196.9375 132.136719 196.90625 132.453125 C 196.851562 132.875 196.988281 133.328125 197.09375 133.761719 C 197.515625 135.488281 198.011719 137.207031 198.371094 138.957031 C 198.941406 141.730469 199.289062 144.503906 198.679688 147.359375 C 197.550781 152.640625 194.46875 155.910156 189.179688 157.089844 C 185 158.019531 181.230469 156.425781 179.054688 152.769531 C 178.328125 151.546875 177.832031 150.226562 177.523438 148.835938 C 176.808594 145.503906 176.816406 142.171875 177.609375 138.875 C 178.273438 136.101562 179.339844 133.476562 181.316406 131.347656 C 183.941406 128.511719 187.152344 127.371094 191.003906 128.214844 C 192.261719 128.488281 193.402344 128.984375 194.5 129.636719 C 195.121094 130.015625 195.703125 130.542969 196.515625 130.417969 Z M 189.441406 146.75 C 189.328125 146.261719 189.074219 145.769531 188.765625 145.378906 C 187.742188 144.050781 186.042969 144.3125 185.484375 145.90625 C 185.242188 146.589844 185.1875 147.339844 185.050781 148.035156 C 185.179688 148.878906 185.242188 149.691406 185.429688 150.46875 C 185.578125 151.101562 185.78125 151.765625 186.117188 152.316406 C 186.847656 153.496094 188.28125 153.496094 189.019531 152.347656 C 189.292969 151.925781 189.484375 151.417969 189.589844 150.921875 C 189.886719 149.519531 189.757812 148.117188 189.441406 146.75 Z M 243.433594 130.3125 C 241.671875 129.914062 239.898438 129.933594 238.136719 130.40625 C 235.273438 131.1875 233.070312 132.84375 231.402344 135.246094 C 228.992188 138.703125 227.90625 142.605469 227.609375 146.75 C 227.421875 149.363281 227.609375 151.957031 228.476562 154.453125 C 229.277344 156.765625 230.589844 158.671875 232.636719 160.09375 C 235.464844 162.066406 238.601562 162.363281 241.820312 161.707031 C 247.191406 160.613281 250.347656 157.078125 251.730469 151.933594 C 252.628906 148.59375 252.523438 145.167969 251.929688 141.761719 C 251.5 139.296875 250.402344 137.125 249.25 134.953125 C 248.628906 133.78125 248.058594 132.601562 247.425781 131.355469 C 246.167969 131.03125 244.804688 130.628906 243.433594 130.3125 Z M 238.777344 154.550781 C 238.429688 155.613281 237.714844 156.332031 236.550781 156.40625 C 235.632812 156.46875 234.714844 155.679688 234.355469 154.527344 C 234.15625 153.894531 234.027344 153.242188 233.964844 152.578125 C 233.828125 151.164062 234.007812 149.773438 234.378906 148.414062 C 234.503906 147.941406 234.789062 147.464844 235.125 147.105469 C 235.339844 146.886719 235.855469 146.738281 236.117188 146.84375 C 237.375 147.347656 238.492188 148.054688 238.777344 149.554688 C 238.957031 150.492188 239.128906 151.429688 239.296875 152.386719 C 239.128906 153.125 239.011719 153.855469 238.777344 154.550781 Z M 238.777344 154.550781 " fill-opacity="1" fill-rule="nonzero"/></svg>